%TF.GenerationSoftware,KiCad,Pcbnew,7.0.1-3b83917a11~172~ubuntu22.04.1*%
%TF.CreationDate,2023-03-28T20:46:27-04:00*%
%TF.ProjectId,generate_gerber,67656e65-7261-4746-955f-676572626572,1*%
%TF.SameCoordinates,Original*%
%TF.FileFunction,Copper,L2,Bot*%
%TF.FilePolarity,Positive*%
%FSLAX46Y46*%
G04 Gerber Fmt 4.6, Leading zero omitted, Abs format (unit mm)*
G04 Created by KiCad (PCBNEW 7.0.1-3b83917a11~172~ubuntu22.04.1) date 2023-03-28 20:46:27*
%MOMM*%
%LPD*%
G01*
G04 APERTURE LIST*
%TA.AperFunction,ViaPad*%
%ADD10C,0.200000*%
%TD*%
%TA.AperFunction,Conductor*%
%ADD11C,0.100000*%
%TD*%
G04 APERTURE END LIST*
D10*
%TO.N,*%
X31800000Y-20200000D03*
X31400000Y-20200000D03*
X31000000Y-20200000D03*
X32400000Y-21200000D03*
X32800000Y-21200000D03*
X32600000Y-20200000D03*
X33200000Y-21200000D03*
X31200000Y-21200000D03*
X30800000Y-21200000D03*
X31600000Y-21200000D03*
X30200000Y-20200000D03*
X32200000Y-20200000D03*
X33000000Y-20200000D03*
X30400000Y-21200000D03*
X30600000Y-20200000D03*
X32000000Y-21200000D03*
%TD*%
D11*
%TO.N,*%
X31000000Y-20200000D02*
X31200000Y-20200000D01*
X31400000Y-20200000D02*
X31600000Y-20200000D01*
X32400000Y-20200000D02*
X32400000Y-21200000D01*
X32200000Y-20200000D02*
X32400000Y-20200000D01*
X30800000Y-20200000D02*
X30800000Y-21200000D01*
X32600000Y-20200000D02*
X32800000Y-20200000D01*
X32800000Y-20200000D02*
X32800000Y-21200000D01*
X30200000Y-20200000D02*
X30400000Y-20200000D01*
X33000000Y-20200000D02*
X33200000Y-20200000D01*
X30600000Y-20200000D02*
X30800000Y-20200000D01*
X32000000Y-20200000D02*
X32000000Y-21200000D01*
X31200000Y-20200000D02*
X31200000Y-21200000D01*
X30400000Y-20200000D02*
X30400000Y-21200000D01*
X31800000Y-20200000D02*
X32000000Y-20200000D01*
X31600000Y-20200000D02*
X31600000Y-21200000D01*
X33200000Y-20200000D02*
X33200000Y-21200000D01*
%TD*%
M02*
