<?xml version="1.0" encoding="UTF-8" standalone="no"?>
<!-- Created with Inkscape (http://www.inkscape.org/) -->

<svg
   width="96"
   height="96"
   viewBox="0 0 25.399999 25.400001"
   version="1.1"
   id="svg4554"
   inkscape:version="1.1.2 (0a00cf5339, 2022-02-04)"
   sodipodi:docname="icon.svg"
   inkscape:export-filename="/home/tguillod/PyPEEC/PyPEEC/bitmap.png"
   inkscape:export-xdpi="96"
   inkscape:export-ydpi="96"
   xmlns:inkscape="http://www.inkscape.org/namespaces/inkscape"
   xmlns:sodipodi="http://sodipodi.sourceforge.net/DTD/sodipodi-0.dtd"
   xmlns="http://www.w3.org/2000/svg"
   xmlns:svg="http://www.w3.org/2000/svg">
  <sodipodi:namedview
     id="namedview4556"
     pagecolor="#ffffff"
     bordercolor="#666666"
     borderopacity="1.0"
     inkscape:pageshadow="2"
     inkscape:pageopacity="0.0"
     inkscape:pagecheckerboard="0"
     inkscape:document-units="mm"
     showgrid="false"
     units="px"
     inkscape:zoom="4.5304435"
     inkscape:cx="32.116061"
     inkscape:cy="41.828135"
     inkscape:window-width="2494"
     inkscape:window-height="1376"
     inkscape:window-x="66"
     inkscape:window-y="27"
     inkscape:window-maximized="1"
     inkscape:current-layer="layer1" />
  <defs
     id="defs4551" />
  <g
     inkscape:label="Layer 1"
     inkscape:groupmode="layer"
     id="layer1">
    <g
       id="g7349"
       transform="translate(-0.4857748,0.04493135)">
      <path
         id="use191"
         style="fill:#ff9955;stroke:#000000;stroke-width:0.182835;stroke-linejoin:round"
         d="m 9.2272896,18.36865 3.9584854,2.285432 3.958485,-2.285432 v -4.570865 l -3.958485,-2.285433 -3.9584854,2.285433 z m 0,-4.570865 3.9584854,2.285432 m 0,4.570865 v -4.570865 m 3.958485,-2.285432 -3.958485,2.285432" />
      <path
         id="use189-6"
         style="fill:#ff6600;stroke:#000000;stroke-width:0.182835;stroke-linejoin:round"
         d="M 9.2272896,9.2269191 13.185775,11.512352 17.14426,9.2269191 V 4.6560539 L 13.185775,2.3706213 9.2272896,4.6560539 Z m 0,-4.5708652 3.9584854,2.2854327 m 0,4.5708654 V 6.9414866 M 17.14426,4.6560539 13.185775,6.9414866" />
      <path
         id="use189-6-5"
         style="fill:#ff9955;stroke:#000000;stroke-width:0.182835;stroke-linejoin:round"
         d="m 13.185775,11.512352 3.958485,2.285432 3.958485,-2.285432 V 6.9414864 L 17.14426,4.6560538 13.185775,6.9414864 Z m 0,-4.5708656 3.958485,2.2854327 m 0,4.5708649 V 9.2269191 M 21.102745,6.9414864 17.14426,9.2269191" />
      <path
         id="use181"
         style="fill:#ffccaa;stroke:#000000;stroke-width:0.182835;stroke-linejoin:round"
         d="m 17.14426,18.36865 3.958486,2.285433 3.958485,-2.285433 v -4.570865 l -3.958485,-2.285433 -3.958486,2.285433 z m 0,-4.570865 3.958486,2.285432 m 0,4.570866 v -4.570866 m 3.958485,-2.285432 -3.958485,2.285432" />
      <path
         id="use183"
         style="fill:#ffccaa;stroke:#000000;stroke-width:0.182835;stroke-linejoin:round"
         d="M 1.3103186,18.36865 5.268804,20.654083 9.2272896,18.36865 V 13.797785 L 5.268804,11.512352 1.3103186,13.797785 Z m 0,-4.570865 3.9584854,2.285432 m 0,4.570866 V 16.083217 M 9.2272896,13.797785 5.268804,16.083217" />
      <path
         id="use185"
         style="fill:#ffccaa;stroke:#000000;stroke-width:0.182835;stroke-linejoin:round"
         d="m 5.268804,20.654083 3.9584856,2.285433 3.9584854,-2.285433 V 16.083217 L 9.2272896,13.797785 5.268804,16.083217 Z m 0,-4.570866 3.9584856,2.285433 m 0,4.570866 V 18.36865 M 13.185775,16.083217 9.2272896,18.36865" />
      <path
         id="use187"
         style="fill:#ffccaa;stroke:#000000;stroke-width:0.182835;stroke-linejoin:round"
         d="m 13.185775,20.654083 3.958485,2.285433 3.958486,-2.285433 v -4.570866 l -3.958486,-2.285432 -3.958485,2.285432 z m 0,-4.570866 3.958485,2.285433 m 0,4.570866 V 18.36865 m 3.958486,-2.285433 -3.958486,2.285433" />
      <path
         id="use189"
         style="fill:#ff9955;stroke:#000000;stroke-width:0.182835;stroke-linejoin:round"
         d="m 5.2688039,11.512352 3.9584857,2.285433 3.9584854,-2.285433 V 6.9414871 L 9.2272896,4.6560531 5.2688039,6.9414871 Z m 0,-4.5708649 3.9584857,2.285432 m 0,4.5708659 V 9.2269191 m 3.9584854,-2.285432 -3.9584854,2.285432" />
    </g>
  </g>
</svg>
